<svg xmlns="http://www.w3.org/2000/svg" width="245.3000030517578" height="54.5" style=""><rect id="backgroundrect" width="100%" height="100%" x="0" y="0" fill="none" stroke="none"/>
 <style type="text/css">.st0{fill:#FFFFFF;}</style>

 <g style="">
  <title>background</title>
  <rect fill="#333333" id="canvas_background" height="56.5" width="247.3000030517578" y="-1" x="-1"/>
 </g>
 <g style="" class="currentLayer">
  <title>Layer 1</title>
  <g id="svg_1">
   <g id="XMLID_1453_">
    <path d="m46.3,45.3c-13.7,-2.1 -30.2,-0.4 -30.2,-0.4c-0.2,-0.9 0.1,-1.6 0.4,-2.1c0.8,-0.9 2.7,-2.4 3.3,-2.7c6,-1.4 20.7,-0.8 20.7,-0.8l-0.5,-0.2c-5,-1.2 -17.7,-0.7 -19.1,-0.5c-1.2,0.1 -0.9,-0.3 -0.9,-0.7c0,-0.4 0.1,-1 0.6,-1.8c4.2,-4 4.9,-12.2 5.1,-13.2c0.2,-0.6 -0.7,-1.1 -0.7,-1.1l-1.4,-1.1l-0.5,-3.9c0,0 -0.7,0.1 -0.9,-0.2c-0.2,-0.3 -0.9,-2.6 -1,-3.5c0,-0.7 0,-1.7 0,-2.2c0.4,-0.7 1.3,-1.4 2.5,-2l0.9,4.4c0.4,-0.2 0.8,-0.4 1.3,-0.5l0.1,-4.6c1.3,-0.3 2.7,-0.5 4.3,-0.6l0.4,4.4c0.2,0 0.5,0 0.7,0c0.3,0 0.5,0 0.8,0l0.4,-4.4c1.5,0.1 3,0.3 4.2,0.6l-0.1,4.6c0.6,0.2 1.1,0.4 1.6,0.6l0.8,-4.4c1.2,0.6 2,1.2 2.4,2c0,0.5 0,0.8 0,1.8c-0.1,0.6 -0.6,2.7 -1.1,3.7c-0.4,0.5 -1.1,0.3 -1.1,0.3s-0.2,0.6 -0.3,2.1c0,2.1 -1,2.5 -1.5,2.7c-0.5,0.2 -0.4,0.5 -0.7,0.8c0.9,8.8 4.8,12.7 4.9,13.7c0.7,0.6 0.6,1.3 0.6,1.3s0,0.7 0.2,2.4c3.6,2.7 3.7,3.6 3.7,3.6s0.3,0.2 0.1,1.9m-39.8,-39l0,42l8.2,0l0,-1.4c0,0 0.2,-0.7 1.5,-0.7c1.5,-0.3 18.9,-1.9 30.3,-0.5c1.1,0.7 1.5,0.9 1.3,1.8c0,0.3 0,0.6 0.1,0.8l0.7,0l0,-42l-42.1,0z" class="st0" id="XMLID_1513_"/>
    <path d="m232.1,38.9c-0.2,-0.3 -0.5,-0.6 -0.8,-0.8c-0.4,-0.2 -0.9,-0.4 -1.6,-0.5c-0.7,-0.2 -1.1,-0.3 -1.2,-0.4c-0.1,-0.1 -0.2,-0.2 -0.2,-0.3c0,-0.1 0,-0.2 0.2,-0.3c0.2,-0.1 0.5,-0.2 0.9,-0.2c0.4,0 0.7,0.1 0.8,0.2c0.2,0.1 0.3,0.4 0.3,0.7l0,0.1l1.5,-0.1l0.1,0l0,-0.1c0,-0.7 -0.3,-1.2 -0.8,-1.7c-0.5,-0.4 -1.2,-0.6 -2.1,-0.6c-0.6,0 -1,0.1 -1.4,0.3c-0.4,0.2 -0.7,0.4 -0.9,0.8c-0.2,0.3 -0.3,0.7 -0.3,1.1c0,0.6 0.2,1.1 0.7,1.5c0.3,0.3 0.9,0.5 1.7,0.7c0.6,0.1 1,0.3 1.1,0.3c0.2,0.1 0.4,0.2 0.4,0.3c0.1,0.1 0.1,0.2 0.1,0.3c0,0.2 -0.1,0.4 -0.3,0.6c-0.2,0.2 -0.5,0.3 -0.9,0.3c-0.4,0 -0.7,-0.1 -0.9,-0.3c-0.2,-0.2 -0.4,-0.5 -0.5,-0.9l0,-0.1l-1.5,0.1l-0.1,0l0,0.1c0.1,0.8 0.4,1.5 0.9,1.9c0.5,0.4 1.2,0.7 2.1,0.7c0.6,0 1.2,-0.1 1.6,-0.3c0.4,-0.2 0.8,-0.5 1,-0.8c0.2,-0.4 0.4,-0.8 0.4,-1.2c0,-0.7 -0.1,-1.1 -0.3,-1.4m-10.5,-3.9l-1.7,0l0,7.3l5.2,0l0,-1.5l-3.5,0l0,-5.8zm-7.4,4.2l0.7,-2.1l0.8,2.1l-1.5,0zm1.6,-4.3l-1.7,0l-2.9,7.3l1.8,0l0.6,-1.6l2.6,0l0.6,1.6l1.9,0l-0.1,-0.2l-2.8,-7.1zm-7.4,4.4l-2.7,-4.3l-1.6,0l0,7.3l1.6,0l0,-4.3l2.6,4.2l1.7,0l0,-7.3l-1.6,0l0,4.4zm-8.2,1c-0.3,0.4 -0.8,0.6 -1.3,0.6c-0.5,0 -1,-0.2 -1.3,-0.6c-0.3,-0.4 -0.5,-0.9 -0.5,-1.7c0,-0.8 0.2,-1.4 0.5,-1.7c0.3,-0.4 0.8,-0.6 1.3,-0.6c0.6,0 1,0.2 1.3,0.5c0.3,0.4 0.5,0.9 0.5,1.7c0,0.9 -0.1,1.4 -0.5,1.8m-1.3,-5.5c-0.6,0 -1.1,0.1 -1.6,0.3c-0.3,0.1 -0.7,0.4 -1,0.7c-0.3,0.3 -0.5,0.6 -0.7,1c-0.2,0.5 -0.3,1.1 -0.3,1.9c0,1.1 0.3,2.1 1,2.7c0.6,0.7 1.5,1 2.6,1l0,0c1.1,0 1.9,-0.3 2.6,-1c0.6,-0.7 1,-1.6 1,-2.8c0,-1.2 -0.3,-2.1 -1,-2.8c-0.6,-0.7 -1.5,-1 -2.6,-1m-6.8,7.4l1.7,0l0,-7.3l-1.7,0l0,7.3zm-2.8,-4.1c-0.4,-0.2 -0.9,-0.4 -1.6,-0.5c-0.7,-0.2 -1.1,-0.3 -1.2,-0.4c-0.1,-0.1 -0.2,-0.2 -0.2,-0.3c0,-0.1 0.1,-0.2 0.2,-0.3c0.2,-0.1 0.5,-0.2 0.9,-0.2c0.4,0 0.7,0.1 0.8,0.2c0.2,0.1 0.3,0.4 0.3,0.7l0,0.1l1.5,-0.1l0.1,0l0,-0.1c0,-0.7 -0.3,-1.2 -0.8,-1.7c-0.5,-0.4 -1.2,-0.6 -2.1,-0.6c-0.6,0 -1,0.1 -1.4,0.3c-0.4,0.2 -0.7,0.4 -0.9,0.8c-0.2,0.3 -0.3,0.7 -0.3,1.1c0,0.6 0.2,1.1 0.7,1.5c0.3,0.3 0.9,0.5 1.7,0.7c0.6,0.1 1,0.3 1.1,0.3c0.2,0.1 0.4,0.2 0.5,0.3c0.1,0.1 0.1,0.2 0.1,0.3c0,0.2 -0.1,0.4 -0.3,0.6c-0.2,0.2 -0.5,0.3 -0.9,0.3c-0.4,0 -0.7,-0.1 -0.9,-0.3c-0.2,-0.2 -0.4,-0.5 -0.5,-0.9l0,-0.1l-1.5,0.1l-0.1,0l0,0.1c0.1,0.8 0.4,1.5 0.9,1.9c0.5,0.4 1.2,0.7 2.1,0.7c0.6,0 1.2,-0.1 1.6,-0.3c0.4,-0.2 0.8,-0.5 1,-0.8c0.2,-0.4 0.4,-0.8 0.4,-1.2c0,-0.5 -0.1,-0.9 -0.3,-1.2c-0.3,-0.6 -0.5,-0.8 -0.9,-1m-7.4,0c-0.4,-0.2 -0.9,-0.4 -1.6,-0.5c-0.7,-0.2 -1.1,-0.3 -1.2,-0.4c-0.1,-0.1 -0.2,-0.2 -0.2,-0.3c0,-0.1 0.1,-0.2 0.2,-0.3c0.2,-0.1 0.5,-0.2 0.9,-0.2c0.4,0 0.6,0.1 0.8,0.2c0.2,0.1 0.3,0.4 0.3,0.7l0,0.1l1.5,-0.1l0.1,0l0,-0.1c0,-0.7 -0.3,-1.2 -0.8,-1.7c-0.5,-0.4 -1.2,-0.6 -2.1,-0.6c-0.6,0 -1,0.1 -1.4,0.3c-0.4,0.2 -0.7,0.4 -0.9,0.8c-0.2,0.3 -0.3,0.7 -0.3,1.1c0,0.6 0.2,1.1 0.7,1.5c0.3,0.3 0.9,0.5 1.7,0.7c0.6,0.1 1,0.3 1.1,0.3c0.2,0.1 0.4,0.2 0.4,0.3c0.1,0.1 0.1,0.2 0.1,0.3c0,0.2 -0.1,0.4 -0.3,0.6c-0.2,0.2 -0.5,0.3 -0.9,0.3c-0.4,0 -0.7,-0.1 -0.9,-0.3c-0.2,-0.2 -0.4,-0.5 -0.5,-0.9l0,-0.1l-1.5,0.1l-0.1,0l0,0.1c0.1,0.8 0.4,1.5 0.9,1.9c0.5,0.4 1.2,0.7 2.1,0.7c0.6,0 1.2,-0.1 1.6,-0.3c0.4,-0.2 0.8,-0.5 1,-0.8c0.2,-0.4 0.4,-0.8 0.4,-1.2c0,-0.5 -0.1,-0.9 -0.3,-1.2c-0.1,-0.6 -0.4,-0.8 -0.8,-1m-10.1,1l3.5,0l0,-1.5l-3.5,0l0,-1.3l3.8,0l0,-1.5l-5.5,0l0,7.3l5.6,0l0,-1.5l-3.9,0l0,-1.5zm-8.5,3.1l1.7,0l0,-3l2.9,0l0,-1.5l-2.9,0l0,-1.4l3.4,0l0,-1.5l-5.1,0l0,7.4zm-3.9,-1.9c-0.3,0.4 -0.8,0.6 -1.3,0.6c-0.5,0 -1,-0.2 -1.3,-0.6c-0.3,-0.4 -0.5,-0.9 -0.5,-1.7c0,-0.8 0.2,-1.4 0.5,-1.7c0.3,-0.4 0.8,-0.6 1.3,-0.6c0.6,0 1,0.2 1.3,0.5c0.3,0.4 0.5,0.9 0.5,1.7c0,0.9 -0.2,1.4 -0.5,1.8m-1.3,-5.5c-0.6,0 -1.1,0.1 -1.6,0.3c-0.4,0.1 -0.7,0.4 -1,0.7c-0.3,0.3 -0.5,0.6 -0.7,1c-0.2,0.5 -0.3,1.1 -0.3,1.9c0,1.1 0.3,2.1 1,2.7c0.6,0.7 1.5,1 2.6,1l0,0c1.1,0 1.9,-0.3 2.6,-1c0.6,-0.7 1,-1.6 1,-2.8c0,-1.2 -0.3,-2.1 -1,-2.8c-0.7,-0.7 -1.5,-1 -2.6,-1m-7,2.8c-0.1,0.1 -0.2,0.2 -0.3,0.2c-0.1,0 -0.6,0.1 -1.2,0.1l-0.9,0l0,-1.5l1,0c0.6,0 0.9,0 1,0c0.2,0 0.3,0.1 0.4,0.2c0.1,0.1 0.2,0.3 0.2,0.5c-0.1,0.2 -0.1,0.4 -0.2,0.5m0.7,1.9c-0.1,-0.2 -0.3,-0.3 -0.5,-0.4c0.5,-0.1 0.8,-0.3 1.1,-0.6c0.3,-0.4 0.5,-0.8 0.5,-1.4c0,-0.4 -0.1,-0.8 -0.3,-1.2c-0.2,-0.3 -0.5,-0.6 -0.9,-0.7c-0.4,-0.1 -0.9,-0.2 -1.7,-0.2l-3.1,0l0,7.3l1.7,0l0,-2.9l0.1,0c0.3,0 0.5,0 0.7,0.1c0.1,0 0.2,0.1 0.4,0.3c0.1,0.1 0.4,0.5 0.7,1l1.1,1.6l2,0l-1,-1.6c-0.3,-0.7 -0.5,-1.1 -0.8,-1.3m-8.4,-1.8c-0.1,0.1 -0.2,0.2 -0.4,0.3c-0.1,0.1 -0.5,0.1 -1.1,0.1l-0.6,0l0,-1.7l0.5,0c0.5,0 0.9,0 1,0c0.2,0 0.4,0.1 0.5,0.3c0.1,0.1 0.2,0.3 0.2,0.5c0,0.2 0,0.4 -0.1,0.5m0.3,-2.7c-0.3,-0.1 -0.9,-0.1 -1.7,-0.1l-2.4,0l0,7.3l1.7,0l0,-2.7l0.8,0c0.6,0 1.1,0 1.5,-0.1c0.3,-0.1 0.5,-0.2 0.8,-0.4c0.3,-0.2 0.5,-0.4 0.6,-0.7c0.2,-0.3 0.3,-0.7 0.3,-1.2c0,-0.6 -0.1,-1.1 -0.4,-1.5c-0.4,-0.2 -0.7,-0.5 -1.2,-0.6m-13.3,4.1l3.5,0l0,-1.5l-3.5,0l0,-1.3l3.8,0l0,-1.5l-5.5,0l0,7.3l5.6,0l0,-1.5l-3.9,0l0,-1.5zm-9,-2.7l2.1,0l0,5.9l1.7,0l0,-5.9l2.1,0l0,-1.5l-5.9,0l0,1.5zm-4.5,2.8l0.8,-2.1l0.8,2.1l-1.6,0zm1.6,-4.3l-1.7,0l-2.9,7.3l1.8,0l0.6,-1.6l2.6,0l0.6,1.6l1.9,0l-0.1,-0.2l-2.8,-7.1zm-4.5,0l-5.9,0l0,1.5l2.1,0l0,5.9l1.7,0l0,-5.9l2.1,0l0,-1.5zm-8.2,3.2c-0.4,-0.2 -0.9,-0.4 -1.6,-0.5c-0.7,-0.2 -1.1,-0.3 -1.2,-0.4c-0.1,-0.1 -0.2,-0.2 -0.2,-0.3c0,-0.1 0.1,-0.2 0.2,-0.3c0.2,-0.1 0.5,-0.2 0.9,-0.2c0.4,0 0.6,0.1 0.8,0.2c0.2,0.1 0.3,0.4 0.3,0.7l0,0.1l1.5,-0.1l0.1,0l0,-0.1c0,-0.7 -0.3,-1.2 -0.8,-1.7c-0.5,-0.4 -1.2,-0.6 -2.1,-0.6c-0.6,0 -1,0.1 -1.4,0.3c-0.4,0.2 -0.7,0.4 -0.9,0.8c-0.2,0.3 -0.3,0.7 -0.3,1.1c0,0.6 0.2,1.1 0.7,1.5c0.3,0.3 0.9,0.5 1.7,0.7c0.6,0.1 1,0.3 1.1,0.3c0.2,0.1 0.4,0.2 0.5,0.3c0.1,0.1 0.1,0.2 0.1,0.3c0,0.2 -0.1,0.4 -0.3,0.6c-0.2,0.2 -0.5,0.3 -0.9,0.3c-0.4,0 -0.7,-0.1 -0.9,-0.3c-0.2,-0.2 -0.4,-0.5 -0.5,-0.9l0,-0.1l-1.5,0.1l-0.1,0l0,0.1c0.1,0.8 0.4,1.5 0.9,1.9c0.5,0.4 1.2,0.7 2.1,0.7c0.6,0 1.2,-0.1 1.6,-0.3c0.4,-0.2 0.8,-0.5 1,-0.8c0.2,-0.4 0.4,-0.8 0.4,-1.2c0,-0.5 -0.1,-0.9 -0.3,-1.2c-0.2,-0.6 -0.5,-0.8 -0.9,-1m-10.1,1l3.5,0l0,-1.5l-3.5,0l0,-1.3l3.8,0l0,-1.5l-5.5,0l0,7.3l5.6,0l0,-1.5l-3.9,0l0,-1.5zm-10.1,-4.1l-1.7,0l0,7.3l5.2,0l0,-1.5l-3.5,0l0,-5.8zm-7.5,4.2l0.8,-2.1l0.8,2.1l-1.6,0zm1.6,-4.3l-1.7,0l-2.9,7.3l1.9,0l0.6,-1.6l2.6,0l0.6,1.6l1.9,0l-0.2,-0.2l-2.8,-7.1zm-9.4,4.2l3.5,0l0,-1.5l-3.5,0l0,-1.3l3.8,0l0,-1.5l-5.5,0l0,7.3l5.6,0l0,-1.5l-3.9,0l0,-1.5zm-5.5,-1.5c-0.1,0.1 -0.2,0.2 -0.3,0.2c-0.1,0 -0.6,0.1 -1.2,0.1l-0.9,0l0,-1.5l1,0c0.6,0 0.9,0 1,0c0.2,0 0.3,0.1 0.4,0.2c0.1,0.1 0.2,0.3 0.2,0.5c0,0.2 -0.1,0.4 -0.2,0.5m0.8,1.9c-0.1,-0.2 -0.3,-0.3 -0.5,-0.4c0.5,-0.1 0.8,-0.3 1.1,-0.6c0.3,-0.4 0.5,-0.8 0.5,-1.4c0,-0.4 -0.1,-0.8 -0.3,-1.2c-0.2,-0.3 -0.5,-0.6 -0.9,-0.7c-0.4,-0.1 -0.9,-0.2 -1.7,-0.2l-3.1,0l0,7.3l1.7,0l0,-2.9l0.1,0c0.3,0 0.5,0 0.7,0.1c0.1,0 0.3,0.1 0.4,0.3c0.1,0.1 0.4,0.5 0.7,1l1.1,1.6l2,0l-1,-1.6c-0.3,-0.7 -0.6,-1.1 -0.8,-1.3" class="st0" id="XMLID_1481_"/>
    <g id="XMLID_1454_">
     <g id="XMLID_1458_">
      <path d="m60.5,11.2l6.4,0c1.5,0 2.6,0.1 3.3,0.3c1,0.3 1.9,0.8 2.6,1.6c0.7,0.8 1.3,1.7 1.7,2.8c0.4,1.1 0.6,2.5 0.6,4.1c0,1.4 -0.2,2.7 -0.5,3.7c-0.4,1.3 -1.1,2.3 -1.9,3.1c-0.6,0.6 -1.4,1.1 -2.5,1.4c-0.8,0.2 -1.8,0.4 -3.1,0.4l-6.6,0l0,-17.4m3.5,3l0,11.5l2.6,0c1,0 1.7,-0.1 2.1,-0.2c0.6,-0.1 1,-0.4 1.4,-0.7c0.4,-0.3 0.7,-0.9 0.9,-1.7c0.2,-0.8 0.4,-1.8 0.4,-3.2c0,-1.3 -0.1,-2.4 -0.4,-3.1c-0.2,-0.7 -0.6,-1.3 -1,-1.7c-0.4,-0.4 -1,-0.7 -1.6,-0.8c-0.5,-0.1 -1.5,-0.2 -2.9,-0.2l-1.5,0l0,0.1z" class="st0" id="XMLID_1478_"/>
      <polygon points="78.1,28.7 78.1,11.2 91,11.2 91,14.2 81.6,14.2 81.6,18 90.4,18 90.4,21 81.6,21       81.6,25.7 91.4,25.7 91.4,28.7     " class="st0" id="XMLID_1477_"/>
      <path d="m93.6,20c0,-1.8 0.3,-3.3 0.8,-4.5c0.4,-0.9 0.9,-1.7 1.6,-2.4c0.7,-0.7 1.4,-1.2 2.3,-1.6c1.1,-0.5 2.3,-0.7 3.8,-0.7c2.6,0 4.6,0.8 6.2,2.4c1.5,1.6 2.3,3.8 2.3,6.7c0,2.8 -0.8,5 -2.3,6.6c-1.5,1.6 -3.6,2.4 -6.2,2.4c-2.6,0 -4.7,-0.8 -6.2,-2.4c-1.5,-1.5 -2.3,-3.7 -2.3,-6.5m3.7,-0.1c0,2 0.5,3.5 1.4,4.5c0.9,1 2.1,1.5 3.5,1.5s2.6,-0.5 3.5,-1.5c0.9,-1 1.4,-2.5 1.4,-4.6c0,-2 -0.4,-3.5 -1.3,-4.5c-0.9,-1 -2,-1.5 -3.5,-1.5c-1.5,0 -2.6,0.5 -3.5,1.5c-1.1,1.1 -1.5,2.6 -1.5,4.6" class="st0" id="XMLID_1474_"/>
      <polygon points="113.4,28.7 113.4,11.4 116.9,11.4 116.9,25.7 125.7,25.7 125.7,28.7     " class="st0" id="XMLID_1473_"/>
      <path d="m134.5,28.7l0,-17.5l5.7,0c2.1,0 3.5,0.1 4.2,0.3c1,0.3 1.8,0.8 2.5,1.7c0.7,0.9 1,2 1,3.4c0,1.1 -0.2,2 -0.6,2.7c-0.4,0.7 -0.9,1.3 -1.5,1.7c-0.6,0.4 -1.2,0.7 -1.8,0.8c-0.8,0.2 -2.1,0.3 -3.7,0.3l-2.3,0l0,6.6l-3.5,0m3.6,-14.5l0,5l1.9,0c1.4,0 2.3,-0.1 2.8,-0.3c0.5,-0.2 0.8,-0.5 1.1,-0.9c0.3,-0.4 0.4,-0.8 0.4,-1.4c0,-0.6 -0.2,-1.2 -0.6,-1.6c-0.4,-0.4 -0.8,-0.7 -1.4,-0.8c-0.4,-0.1 -1.3,-0.1 -2.5,-0.1l-1.7,0l0,0.1z" class="st0" id="XMLID_1470_"/>
      <path d="m153.3,19.9l-3,-0.5c0.3,-1.2 0.9,-2.1 1.8,-2.7c0.8,-0.6 2.1,-0.9 3.7,-0.9c1.5,0 2.6,0.2 3.3,0.5c0.7,0.4 1.2,0.8 1.5,1.3c0.3,0.5 0.4,1.5 0.4,3l0,3.9c0,1.1 0.1,1.9 0.2,2.5c0.1,0.5 0.3,1.1 0.6,1.7l-3.3,0c-0.1,-0.2 -0.2,-0.5 -0.3,-1c-0.1,-0.2 -0.1,-0.3 -0.1,-0.4c-0.6,0.6 -1.2,1 -1.8,1.3c-0.7,0.3 -1.3,0.4 -2.1,0.4c-1.3,0 -2.3,-0.4 -3.1,-1.1c-0.7,-0.7 -1.1,-1.6 -1.1,-2.7c0,-0.7 0.2,-1.4 0.5,-1.9c0.3,-0.6 0.8,-1 1.4,-1.3c0.6,-0.3 1.5,-0.6 2.7,-0.8c1.6,-0.3 2.6,-0.6 3.2,-0.8l0,-0.3c0,-0.7 -0.2,-1.1 -0.5,-1.4c-0.3,-0.3 -0.9,-0.4 -1.8,-0.4c-0.6,0 -1.1,0.1 -1.4,0.4c-0.3,0.2 -0.6,0.6 -0.8,1.2m4.5,2.7c-0.4,0.1 -1.1,0.3 -2,0.5c-0.9,0.2 -1.5,0.4 -1.8,0.6c-0.4,0.3 -0.6,0.7 -0.6,1.2c0,0.5 0.2,0.9 0.5,1.2c0.3,0.3 0.8,0.5 1.3,0.5c0.6,0 1.2,-0.2 1.7,-0.6c0.4,-0.3 0.7,-0.7 0.8,-1.1c0.1,-0.3 0.1,-0.8 0.1,-1.6l0,-0.7z" class="st0" id="XMLID_1467_"/>
      <path d="m167.6,28.7l-3.4,0l0,-12.7l3.1,0l0,1.8c0.5,-0.8 1,-1.4 1.4,-1.7c0.4,-0.3 0.9,-0.4 1.5,-0.4c0.8,0 1.5,0.2 2.2,0.6l-1,2.9c-0.6,-0.4 -1.1,-0.5 -1.6,-0.5c-0.5,0 -0.9,0.1 -1.2,0.4c-0.3,0.3 -0.6,0.7 -0.8,1.4c-0.2,0.7 -0.3,2.1 -0.3,4.2l0,4l0.1,0z" class="st0" id="XMLID_1466_"/>
      <path d="m181.3,16l0,2.7l-2.3,0l0,5.1c0,1 0,1.6 0.1,1.8c0,0.2 0.1,0.3 0.3,0.4c0.2,0.1 0.3,0.2 0.6,0.2c0.3,0 0.7,-0.1 1.3,-0.3l0.3,2.6c-0.8,0.3 -1.6,0.5 -2.6,0.5c-0.6,0 -1.1,-0.1 -1.6,-0.3c-0.5,-0.2 -0.8,-0.5 -1.1,-0.8c-0.2,-0.3 -0.4,-0.8 -0.5,-1.3c-0.1,-0.4 -0.1,-1.2 -0.1,-2.4l0,-5.5l-1.5,0l0,-2.7l1.5,0l0,-2.5l3.4,-2l0,4.5l2.2,0z" class="st0" id="XMLID_1465_"/>
      <path d="m195.5,28.7l-3.4,0l0,-6.5c0,-1.4 -0.1,-2.2 -0.2,-2.6c-0.1,-0.4 -0.4,-0.7 -0.7,-0.9c-0.3,-0.2 -0.7,-0.3 -1.2,-0.3c-0.6,0 -1.1,0.2 -1.6,0.5c-0.5,0.3 -0.8,0.7 -0.9,1.3c-0.2,0.5 -0.3,1.5 -0.3,2.9l0,5.7l-3.2,0l0,-12.8l3.1,0l0,1.9c1.1,-1.4 2.5,-2.1 4.2,-2.1c0.7,0 1.4,0.1 2,0.4c0.6,0.3 1.1,0.6 1.4,1c0.3,0.4 0.5,0.9 0.7,1.4c0.1,0.5 0.2,1.3 0.2,2.3l0,7.8l-0.1,0z" class="st0" id="XMLID_1464_"/>
      <path d="m206.2,24.7l3.4,0.6c-0.4,1.2 -1.1,2.2 -2,2.8c-0.9,0.6 -2.1,1 -3.5,1c-2.2,0 -3.8,-0.7 -4.9,-2.2c-0.8,-1.2 -1.2,-2.6 -1.2,-4.4c0,-2.1 0.5,-3.7 1.6,-4.9c1.1,-1.2 2.5,-1.8 4.2,-1.8c1.9,0 3.4,0.6 4.5,1.9c1.1,1.2 1.6,3.1 1.6,5.7l-8.4,0c0,1 0.3,1.8 0.8,2.3c0.5,0.6 1.2,0.8 1.9,0.8c0.5,0 1,-0.1 1.3,-0.4c0.3,-0.3 0.6,-0.8 0.7,-1.4m0.3,-3.4c0,-1 -0.3,-1.7 -0.8,-2.2c-0.5,-0.5 -1.1,-0.8 -1.7,-0.8c-0.7,0 -1.3,0.3 -1.8,0.8c-0.5,0.5 -0.7,1.3 -0.7,2.2l5,0z" class="st0" id="XMLID_1461_"/>
      <path d="m215.7,28.7l-3.4,0l0,-12.7l3.1,0l0,1.8c0.5,-0.8 1,-1.4 1.4,-1.7c0.4,-0.3 0.9,-0.4 1.5,-0.4c0.8,0 1.5,0.2 2.2,0.6l-1,2.9c-0.6,-0.4 -1.1,-0.5 -1.6,-0.5c-0.5,0 -0.9,0.1 -1.2,0.4c-0.3,0.3 -0.6,0.7 -0.8,1.4c-0.2,0.7 -0.3,2.1 -0.3,4.2l0,4l0.1,0z" class="st0" id="XMLID_1460_"/>
      <path d="m220.8,25.1l3.4,-0.5c0.1,0.6 0.4,1.1 0.9,1.5c0.4,0.3 1,0.5 1.8,0.5c0.9,0 1.5,-0.2 2,-0.5c0.3,-0.2 0.4,-0.5 0.4,-0.9c0,-0.3 -0.1,-0.5 -0.2,-0.6c-0.2,-0.2 -0.5,-0.3 -1.1,-0.4c-2.7,-0.6 -4.4,-1.1 -5.2,-1.6c-1,-0.7 -1.5,-1.6 -1.5,-2.9c0,-1.1 0.4,-2 1.3,-2.8c0.9,-0.7 2.2,-1.1 4,-1.1c1.7,0 3,0.3 3.9,0.8c0.8,0.6 1.4,1.4 1.7,2.5l-3.2,0.6c-0.1,-0.5 -0.4,-0.9 -0.8,-1.1c-0.4,-0.3 -0.9,-0.4 -1.6,-0.4c-0.9,0 -1.5,0.1 -1.9,0.4c-0.3,0.2 -0.4,0.4 -0.4,0.7c0,0.2 0.1,0.4 0.3,0.6c0.3,0.2 1.3,0.5 3.1,0.9c1.8,0.4 3,0.9 3.8,1.5c0.7,0.6 1.1,1.4 1.1,2.5c0,1.2 -0.5,2.2 -1.5,3c-1,0.8 -2.4,1.3 -4.3,1.3c-1.7,0 -3.1,-0.3 -4.1,-1c-0.9,-0.8 -1.6,-1.8 -1.9,-3" class="st0" id="XMLID_1459_"/>
     </g>
     <g id="XMLID_1455_">
      <polygon points="235.6,15.4 235.6,10.2 237.2,10.2 238.1,13.7 239,10.2 240.5,10.2 240.5,15.4       239.6,15.4 239.6,11.3 238.6,15.4 237.6,15.4 236.6,11.3 236.6,15.4     " class="st0" id="XMLID_1457_"/>
      <polygon points="232.3,15.4 232.3,11.1 230.7,11.1 230.7,10.2 234.8,10.2 234.8,11.1 233.3,11.1       233.3,15.4     " class="st0" id="XMLID_1456_"/>
     </g>
    </g>
   </g>
  </g>
 </g>
</svg>